<svg width="68" height="43" viewBox="0 0 68 43" fill="none" xmlns="http://www.w3.org/2000/svg">
<path d="M2.41462 31C1.98238 31 1.76625 30.8232 1.76625 30.4695V29.9037C1.76625 29.5264 1.88414 29.1767 2.11991 28.8545L11.3857 16.0522V16.005C11.0713 16.0207 10.757 16.0286 10.4426 16.0286H2.79185C2.35961 16.0286 2.14348 15.8518 2.14348 15.4981V14.6258C2.14348 14.2721 2.35961 14.0953 2.79185 14.0953H13.6609C14.0931 14.0953 14.3092 14.2721 14.3092 14.6258V14.9912C14.3092 15.2506 14.2306 15.4903 14.0735 15.7103L4.6898 29.0431V29.0903C4.90199 29.0745 5.21636 29.0667 5.63288 29.0667H13.9202C14.3524 29.0667 14.5686 29.2435 14.5686 29.5972V30.4695C14.5686 30.8232 14.3524 31 13.9202 31H2.41462Z" fill="white"/>
<path d="M2.11991 28.8545L2.92695 29.445L2.93 29.4408L2.11991 28.8545ZM11.3857 16.0522L12.1958 16.6385L12.3857 16.3761V16.0522H11.3857ZM11.3857 16.005H12.3857V14.9538L11.3357 15.0063L11.3857 16.005ZM14.0735 15.7103L13.2597 15.1291L13.2557 15.1348L14.0735 15.7103ZM4.6898 29.0431L3.87203 28.4676L3.6898 28.7265V29.0431H4.6898ZM4.6898 29.0903H3.6898V30.1671L4.76367 30.0875L4.6898 29.0903ZM2.41462 31V30C2.30935 30 2.41612 29.9744 2.56158 30.0934C2.64016 30.1577 2.69859 30.2402 2.73287 30.3243C2.76465 30.4023 2.76625 30.458 2.76625 30.4695H1.76625H0.766253C0.766253 30.8594 0.895116 31.3141 1.29511 31.6413C1.65669 31.9372 2.08765 32 2.41462 32V31ZM1.76625 30.4695H2.76625V29.9037H1.76625H0.766253V30.4695H1.76625ZM1.76625 29.9037H2.76625C2.76625 29.7516 2.80876 29.6065 2.92694 29.445L2.11991 28.8545L1.31288 28.264C0.959513 28.7469 0.766253 29.3013 0.766253 29.9037H1.76625ZM2.11991 28.8545L2.93 29.4408L12.1958 16.6385L11.3857 16.0522L10.5756 15.4659L1.30982 28.2682L2.11991 28.8545ZM11.3857 16.0522H12.3857V16.005H11.3857H10.3857V16.0522H11.3857ZM11.3857 16.005L11.3357 15.0063C11.038 15.0212 10.7403 15.0286 10.4426 15.0286V16.0286V17.0286C10.7736 17.0286 11.1046 17.0203 11.4356 17.0038L11.3857 16.005ZM10.4426 16.0286V15.0286H2.79185V16.0286V17.0286H10.4426V16.0286ZM2.79185 16.0286V15.0286C2.68658 15.0286 2.79335 15.003 2.93881 15.122C3.01739 15.1863 3.07582 15.2688 3.1101 15.3529C3.14189 15.4309 3.14348 15.4866 3.14348 15.4981H2.14348H1.14348C1.14348 15.888 1.27235 16.3427 1.67234 16.6699C2.03392 16.9658 2.46488 17.0286 2.79185 17.0286V16.0286ZM2.14348 15.4981H3.14348V14.6258H2.14348H1.14348V15.4981H2.14348ZM2.14348 14.6258H3.14348C3.14348 14.6373 3.14189 14.693 3.1101 14.771C3.07582 14.8551 3.01739 14.9376 2.93881 15.0019C2.79335 15.1209 2.68658 15.0953 2.79185 15.0953V14.0953V13.0953C2.46488 13.0953 2.03392 13.1581 1.67234 13.4539C1.27235 13.7812 1.14348 14.2359 1.14348 14.6258H2.14348ZM2.79185 14.0953V15.0953H13.6609V14.0953V13.0953H2.79185V14.0953ZM13.6609 14.0953V15.0953C13.7661 15.0953 13.6594 15.1209 13.5139 15.0019C13.4353 14.9376 13.3769 14.8551 13.3426 14.771C13.3108 14.693 13.3092 14.6373 13.3092 14.6258H14.3092H15.3092C15.3092 14.2359 15.1804 13.7812 14.7804 13.4539C14.4188 13.1581 13.9878 13.0953 13.6609 13.0953V14.0953ZM14.3092 14.6258H13.3092V14.9912H14.3092H15.3092V14.6258H14.3092ZM14.3092 14.9912H13.3092C13.3092 15.0329 13.3013 15.0709 13.2597 15.1291L14.0735 15.7103L14.8872 16.2915C15.16 15.9096 15.3092 15.4683 15.3092 14.9912H14.3092ZM14.0735 15.7103L13.2557 15.1348L3.87203 28.4676L4.6898 29.0431L5.50757 29.6187L14.8912 16.2859L14.0735 15.7103ZM4.6898 29.0431H3.6898V29.0903H4.6898H5.6898V29.0431H4.6898ZM4.6898 29.0903L4.76367 30.0875C4.93793 30.0746 5.22244 30.0667 5.63288 30.0667V29.0667V28.0667C5.21027 28.0667 4.86606 28.0745 4.61593 28.093L4.6898 29.0903ZM5.63288 29.0667V30.0667H13.9202V29.0667V28.0667H5.63288V29.0667ZM13.9202 29.0667V30.0667C14.0255 30.0667 13.9187 30.0923 13.7732 29.9733C13.6947 29.909 13.6362 29.8265 13.602 29.7424C13.5702 29.6644 13.5686 29.6087 13.5686 29.5972H14.5686H15.5686C15.5686 29.2073 15.4397 28.7526 15.0397 28.4253C14.6781 28.1295 14.2472 28.0667 13.9202 28.0667V29.0667ZM14.5686 29.5972H13.5686V30.4695H14.5686H15.5686V29.5972H14.5686ZM14.5686 30.4695H13.5686C13.5686 30.458 13.5702 30.4023 13.602 30.3243C13.6362 30.2402 13.6947 30.1577 13.7732 30.0934C13.9187 29.9744 14.0255 30 13.9202 30V31V32C14.2472 32 14.6781 31.9372 15.0397 31.6413C15.4397 31.3141 15.5686 30.8594 15.5686 30.4695H14.5686ZM13.9202 31V30H2.41462V31V32H13.9202V31Z" fill="white"/>
<mask id="path-3-inside-1_2350_4393" fill="white">
<path d="M22.5905 32.345C21.1185 32.345 19.8535 31.954 18.7955 31.172C17.7375 30.367 16.9325 29.24 16.3805 27.791C15.8285 26.319 15.5525 24.6055 15.5525 22.6505C15.5525 19.4305 16.208 16.9925 17.519 15.3365C18.83 13.6575 20.578 12.818 22.763 12.818C23.66 12.818 24.442 12.9445 25.109 13.1975C25.799 13.4275 26.397 13.7495 26.903 14.1635C27.409 14.5775 27.846 15.049 28.214 15.578H28.352L28.8005 13.163H33.1475V26.0315C33.1475 26.8135 33.2855 27.3425 33.5615 27.6185C33.8605 27.8945 34.194 28.0325 34.562 28.0325C34.723 28.0325 34.907 28.0095 35.114 27.9635C35.321 27.9175 35.4705 27.883 35.5625 27.86V31.8965C35.4475 31.9655 35.252 32.0345 34.976 32.1035C34.7 32.1725 34.401 32.23 34.079 32.276C33.78 32.322 33.504 32.345 33.251 32.345C32.101 32.345 31.1695 32.138 30.4565 31.724C29.7435 31.31 29.1915 30.574 28.8005 29.516H28.4555C28.1105 30.022 27.662 30.4935 27.11 30.9305C26.558 31.3675 25.9025 31.7125 25.1435 31.9655C24.3845 32.2185 23.5335 32.345 22.5905 32.345ZM24.488 28.3085C25.431 28.3085 26.1785 28.113 26.7305 27.722C27.3055 27.331 27.7195 26.733 27.9725 25.928C28.2255 25.1 28.352 24.065 28.352 22.823V22.616C28.352 20.776 28.0645 19.3845 27.4895 18.4415C26.9375 17.4755 25.914 16.9925 24.419 16.9925C23.2 16.9925 22.2915 17.4755 21.6935 18.4415C21.0955 19.4075 20.7965 20.822 20.7965 22.685C20.7965 24.525 21.0955 25.928 21.6935 26.894C22.2915 27.837 23.223 28.3085 24.488 28.3085Z"/>
</mask>
<path d="M22.5905 32.345C21.1185 32.345 19.8535 31.954 18.7955 31.172C17.7375 30.367 16.9325 29.24 16.3805 27.791C15.8285 26.319 15.5525 24.6055 15.5525 22.6505C15.5525 19.4305 16.208 16.9925 17.519 15.3365C18.83 13.6575 20.578 12.818 22.763 12.818C23.66 12.818 24.442 12.9445 25.109 13.1975C25.799 13.4275 26.397 13.7495 26.903 14.1635C27.409 14.5775 27.846 15.049 28.214 15.578H28.352L28.8005 13.163H33.1475V26.0315C33.1475 26.8135 33.2855 27.3425 33.5615 27.6185C33.8605 27.8945 34.194 28.0325 34.562 28.0325C34.723 28.0325 34.907 28.0095 35.114 27.9635C35.321 27.9175 35.4705 27.883 35.5625 27.86V31.8965C35.4475 31.9655 35.252 32.0345 34.976 32.1035C34.7 32.1725 34.401 32.23 34.079 32.276C33.78 32.322 33.504 32.345 33.251 32.345C32.101 32.345 31.1695 32.138 30.4565 31.724C29.7435 31.31 29.1915 30.574 28.8005 29.516H28.4555C28.1105 30.022 27.662 30.4935 27.11 30.9305C26.558 31.3675 25.9025 31.7125 25.1435 31.9655C24.3845 32.2185 23.5335 32.345 22.5905 32.345ZM24.488 28.3085C25.431 28.3085 26.1785 28.113 26.7305 27.722C27.3055 27.331 27.7195 26.733 27.9725 25.928C28.2255 25.1 28.352 24.065 28.352 22.823V22.616C28.352 20.776 28.0645 19.3845 27.4895 18.4415C26.9375 17.4755 25.914 16.9925 24.419 16.9925C23.2 16.9925 22.2915 17.4755 21.6935 18.4415C21.0955 19.4075 20.7965 20.822 20.7965 22.685C20.7965 24.525 21.0955 25.928 21.6935 26.894C22.2915 27.837 23.223 28.3085 24.488 28.3085Z" fill="white"/>
<path d="M18.7955 31.172L18.7349 31.2516L18.7361 31.2524L18.7955 31.172ZM16.3805 27.791L16.2869 27.8261L16.2871 27.8266L16.3805 27.791ZM17.519 15.3365L17.5974 15.3986L17.5978 15.398L17.519 15.3365ZM25.109 13.1975L25.0735 13.2911L25.0774 13.2924L25.109 13.1975ZM26.903 14.1635L26.8397 14.2409L26.8397 14.2409L26.903 14.1635ZM28.214 15.578L28.1319 15.6351L28.1617 15.678H28.214V15.578ZM28.352 15.578V15.678H28.4351L28.4503 15.5963L28.352 15.578ZM28.8005 13.163V13.063H28.7174L28.7022 13.1447L28.8005 13.163ZM33.1475 13.163H33.2475V13.063H33.1475V13.163ZM33.5615 27.6185L33.4907 27.6893L33.4937 27.692L33.5615 27.6185ZM35.114 27.9635L35.0923 27.8659L35.0923 27.8659L35.114 27.9635ZM35.5625 27.86H35.6625V27.7319L35.5382 27.763L35.5625 27.86ZM35.5625 31.8965L35.6139 31.9822L35.6625 31.9531V31.8965H35.5625ZM34.976 32.1035L35.0003 32.2005L35.0003 32.2005L34.976 32.1035ZM34.079 32.276L34.0649 32.177L34.0638 32.1772L34.079 32.276ZM30.4565 31.724L30.5067 31.6375L30.5067 31.6375L30.4565 31.724ZM28.8005 29.516L28.8943 29.4813L28.8702 29.416H28.8005V29.516ZM28.4555 29.516V29.416H28.4027L28.3729 29.4597L28.4555 29.516ZM27.11 30.9305L27.1721 31.0089L27.1721 31.0089L27.11 30.9305ZM25.1435 31.9655L25.1119 31.8706L25.1435 31.9655ZM26.7305 27.722L26.6743 27.6393L26.6727 27.6404L26.7305 27.722ZM27.9725 25.928L28.0679 25.958L28.0681 25.9572L27.9725 25.928ZM27.4895 18.4415L27.4026 18.4911L27.4041 18.4936L27.4895 18.4415ZM21.6935 18.4415L21.7785 18.4941L21.7785 18.4941L21.6935 18.4415ZM21.6935 26.894L21.6085 26.9466L21.609 26.9476L21.6935 26.894ZM22.5905 32.345V32.245C21.1372 32.245 19.8937 31.8594 18.8549 31.0916L18.7955 31.172L18.7361 31.2524C19.8133 32.0486 21.0998 32.445 22.5905 32.445V32.345ZM18.7955 31.172L18.8561 31.0924C17.8152 30.3005 17.0204 29.1899 16.4739 27.7554L16.3805 27.791L16.2871 27.8266C16.8446 29.2901 17.6598 30.4335 18.7349 31.2516L18.7955 31.172ZM16.3805 27.791L16.4741 27.7559C15.9272 26.2975 15.6525 24.5963 15.6525 22.6505H15.5525H15.4525C15.4525 24.6147 15.7298 26.3405 16.2869 27.8261L16.3805 27.791ZM15.5525 22.6505H15.6525C15.6525 19.4418 16.3061 17.0298 17.5974 15.3986L17.519 15.3365L17.4406 15.2744C16.1099 16.9552 15.4525 19.4192 15.4525 22.6505H15.5525ZM17.519 15.3365L17.5978 15.398C18.8893 13.744 20.6079 12.918 22.763 12.918V12.818V12.718C20.5481 12.718 18.7707 13.571 17.4402 15.275L17.519 15.3365ZM22.763 12.818V12.918C23.6509 12.918 24.4204 13.0432 25.0735 13.291L25.109 13.1975L25.1445 13.104C24.4636 12.8458 23.6691 12.718 22.763 12.718V12.818ZM25.109 13.1975L25.0774 13.2924C25.7571 13.519 26.3441 13.8354 26.8397 14.2409L26.903 14.1635L26.9663 14.0861C26.4499 13.6636 25.8409 13.336 25.1406 13.1026L25.109 13.1975ZM26.903 14.1635L26.8397 14.2409C27.3386 14.6491 27.7693 15.1138 28.1319 15.6351L28.214 15.578L28.2961 15.5209C27.9227 14.9842 27.4794 14.5059 26.9663 14.0861L26.903 14.1635ZM28.214 15.578V15.678H28.352V15.578V15.478H28.214V15.578ZM28.352 15.578L28.4503 15.5963L28.8988 13.1813L28.8005 13.163L28.7022 13.1447L28.2537 15.5597L28.352 15.578ZM28.8005 13.163V13.263H33.1475V13.163V13.063H28.8005V13.163ZM33.1475 13.163H33.0475V26.0315H33.1475H33.2475V13.163H33.1475ZM33.1475 26.0315H33.0475C33.0475 26.8169 33.1844 27.3828 33.4908 27.6892L33.5615 27.6185L33.6322 27.5478C33.3866 27.3022 33.2475 26.8101 33.2475 26.0315H33.1475ZM33.5615 27.6185L33.4937 27.692C33.809 27.9831 34.1661 28.1325 34.562 28.1325V28.0325V27.9325C34.2219 27.9325 33.912 27.8059 33.6293 27.545L33.5615 27.6185ZM34.562 28.0325V28.1325C34.7322 28.1325 34.9237 28.1082 35.1357 28.0611L35.114 27.9635L35.0923 27.8659C34.8903 27.9108 34.7138 27.9325 34.562 27.9325V28.0325ZM35.114 27.9635L35.1357 28.0611C35.3428 28.0151 35.4934 27.9804 35.5868 27.957L35.5625 27.86L35.5382 27.763C35.4476 27.7856 35.2992 27.8199 35.0923 27.8659L35.114 27.9635ZM35.5625 27.86H35.4625V31.8965H35.5625H35.6625V27.86H35.5625ZM35.5625 31.8965L35.5111 31.8108C35.4096 31.8716 35.2264 31.9378 34.9517 32.0065L34.976 32.1035L35.0003 32.2005C35.2776 32.1312 35.4854 32.0594 35.6139 31.9822L35.5625 31.8965ZM34.976 32.1035L34.9517 32.0065C34.6795 32.0745 34.3839 32.1314 34.0649 32.177L34.079 32.276L34.0931 32.375C34.4181 32.3286 34.7205 32.2705 35.0003 32.2005L34.976 32.1035ZM34.079 32.276L34.0638 32.1772C33.7689 32.2225 33.498 32.245 33.251 32.245V32.345V32.445C33.51 32.445 33.7911 32.4215 34.0942 32.3748L34.079 32.276ZM33.251 32.345V32.245C32.112 32.245 31.1996 32.0398 30.5067 31.6375L30.4565 31.724L30.4063 31.8105C31.1394 32.2362 32.09 32.445 33.251 32.445V32.345ZM30.4565 31.724L30.5067 31.6375C29.8201 31.2389 29.2802 30.5255 28.8943 29.4813L28.8005 29.516L28.7067 29.5507C29.1028 30.6225 29.6669 31.3811 30.4063 31.8105L30.4565 31.724ZM28.8005 29.516V29.416H28.4555V29.516V29.616H28.8005V29.516ZM28.4555 29.516L28.3729 29.4597C28.0344 29.9562 27.5932 30.4205 27.0479 30.8521L27.11 30.9305L27.1721 31.0089C27.7308 30.5665 28.1866 30.0878 28.5381 29.5723L28.4555 29.516ZM27.11 30.9305L27.0479 30.8521C26.5062 31.281 25.8613 31.6208 25.1119 31.8706L25.1435 31.9655L25.1751 32.0604C25.9437 31.8042 26.6098 31.454 27.1721 31.0089L27.11 30.9305ZM25.1435 31.9655L25.1119 31.8706C24.3647 32.1197 23.5246 32.245 22.5905 32.245V32.345V32.445C23.5424 32.445 24.4043 32.3173 25.1751 32.0604L25.1435 31.9655ZM24.488 28.3085V28.4085C25.4438 28.4085 26.2139 28.2105 26.7883 27.8036L26.7305 27.722L26.6727 27.6404C26.1431 28.0155 25.4182 28.2085 24.488 28.2085V28.3085ZM26.7305 27.722L26.7867 27.8047C27.3841 27.3985 27.8096 26.7797 28.0679 25.958L27.9725 25.928L27.8771 25.898C27.6294 26.6863 27.2269 27.2635 26.6743 27.6393L26.7305 27.722ZM27.9725 25.928L28.0681 25.9572C28.325 25.1166 28.452 24.071 28.452 22.823H28.352H28.252C28.252 24.059 28.126 25.0834 27.8769 25.8988L27.9725 25.928ZM28.352 22.823H28.452V22.616H28.352H28.252V22.823H28.352ZM28.352 22.616H28.452C28.452 20.7685 28.1639 19.3554 27.5749 18.3894L27.4895 18.4415L27.4041 18.4936C27.9651 19.4136 28.252 20.7835 28.252 22.616H28.352ZM27.4895 18.4415L27.5763 18.3919C27.0005 17.3842 25.9359 16.8925 24.419 16.8925V16.9925V17.0925C25.8921 17.0925 26.8745 17.5668 27.4027 18.4911L27.4895 18.4415ZM24.419 16.9925V16.8925C23.1684 16.8925 22.2262 17.3909 21.6085 18.3889L21.6935 18.4415L21.7785 18.4941C22.3568 17.5601 23.2316 17.0925 24.419 17.0925V16.9925ZM21.6935 18.4415L21.6085 18.3889C20.9963 19.3778 20.6965 20.8141 20.6965 22.685H20.7965H20.8965C20.8965 20.8299 21.1947 19.4372 21.7785 18.4941L21.6935 18.4415ZM20.7965 22.685H20.6965C20.6965 24.5332 20.9964 25.9578 21.6085 26.9466L21.6935 26.894L21.7785 26.8414C21.1946 25.8982 20.8965 24.5168 20.8965 22.685H20.7965ZM21.6935 26.894L21.609 26.9476C22.2281 27.9237 23.1941 28.4085 24.488 28.4085V28.3085V28.2085C23.2519 28.2085 22.3549 27.7503 21.778 26.8404L21.6935 26.894Z" fill="white" mask="url(#path-3-inside-1_2350_4393)"/>
<mask id="path-5-outside-2_2350_4393" maskUnits="userSpaceOnUse" x="36" y="12" width="15" height="27" fill="black">
<rect fill="white" x="36" y="12" width="15" height="27"/>
<path d="M36.9556 38.0171V18.7623C36.9556 17.4084 37.1979 16.2969 37.6826 15.4278C38.1841 14.5419 38.8861 13.8901 39.7886 13.4722C40.7079 13.0376 41.786 12.8204 43.0229 12.8204C44.2263 12.8204 45.2542 13.0042 46.1066 13.3719C46.9591 13.7229 47.6109 14.2578 48.0622 14.9765C48.5302 15.6785 48.7642 16.5644 48.7642 17.6341C48.7642 18.4364 48.6221 19.13 48.338 19.715C48.0706 20.3 47.6861 20.768 47.1847 21.119C46.7 21.47 46.115 21.7124 45.4297 21.8461V21.9213C46.2989 22.0383 47.051 22.2806 47.6861 22.6484C48.338 23.0161 48.8394 23.5342 49.1904 24.2028C49.5581 24.8546 49.742 25.6904 49.742 26.7099C49.742 27.8799 49.4746 28.8828 48.9397 29.7185C48.4216 30.5375 47.7196 31.1643 46.8337 31.5989C45.9646 32.0334 44.9951 32.2507 43.9254 32.2507C43.3906 32.2507 42.9476 32.2173 42.5966 32.1504C42.2456 32.1003 41.9197 32.0167 41.6189 31.8997C41.3347 31.7827 41.0255 31.6406 40.6912 31.4735V38.0171H36.9556ZM43.2234 29.2672C44.0591 29.2672 44.711 29.0165 45.179 28.5151C45.647 27.9969 45.881 27.2866 45.881 26.384C45.881 25.6987 45.7389 25.1471 45.4548 24.7293C45.1874 24.2947 44.8447 23.9855 44.4269 23.8016C44.009 23.6011 43.5744 23.5008 43.1231 23.5008H41.9949V20.6928H42.8975C43.3488 20.6928 43.7332 20.5841 44.0508 20.3669C44.3684 20.1329 44.6107 19.8236 44.7779 19.4392C44.945 19.0381 45.0286 18.5868 45.0286 18.0854C45.0286 17.2998 44.828 16.7148 44.4269 16.3304C44.0257 15.9292 43.5494 15.7286 42.9978 15.7286C42.5298 15.7286 42.1203 15.8289 41.7693 16.0295C41.4183 16.2301 41.1509 16.556 40.967 17.0073C40.7831 17.4419 40.6912 18.0352 40.6912 18.7874V28.4148C41.1091 28.6822 41.5186 28.8911 41.9197 29.0416C42.3209 29.192 42.7554 29.2672 43.2234 29.2672Z"/>
</mask>
<path d="M36.9556 38.0171V18.7623C36.9556 17.4084 37.1979 16.2969 37.6826 15.4278C38.1841 14.5419 38.8861 13.8901 39.7886 13.4722C40.7079 13.0376 41.786 12.8204 43.0229 12.8204C44.2263 12.8204 45.2542 13.0042 46.1066 13.3719C46.9591 13.7229 47.6109 14.2578 48.0622 14.9765C48.5302 15.6785 48.7642 16.5644 48.7642 17.6341C48.7642 18.4364 48.6221 19.13 48.338 19.715C48.0706 20.3 47.6861 20.768 47.1847 21.119C46.7 21.47 46.115 21.7124 45.4297 21.8461V21.9213C46.2989 22.0383 47.051 22.2806 47.6861 22.6484C48.338 23.0161 48.8394 23.5342 49.1904 24.2028C49.5581 24.8546 49.742 25.6904 49.742 26.7099C49.742 27.8799 49.4746 28.8828 48.9397 29.7185C48.4216 30.5375 47.7196 31.1643 46.8337 31.5989C45.9646 32.0334 44.9951 32.2507 43.9254 32.2507C43.3906 32.2507 42.9476 32.2173 42.5966 32.1504C42.2456 32.1003 41.9197 32.0167 41.6189 31.8997C41.3347 31.7827 41.0255 31.6406 40.6912 31.4735V38.0171H36.9556ZM43.2234 29.2672C44.0591 29.2672 44.711 29.0165 45.179 28.5151C45.647 27.9969 45.881 27.2866 45.881 26.384C45.881 25.6987 45.7389 25.1471 45.4548 24.7293C45.1874 24.2947 44.8447 23.9855 44.4269 23.8016C44.009 23.6011 43.5744 23.5008 43.1231 23.5008H41.9949V20.6928H42.8975C43.3488 20.6928 43.7332 20.5841 44.0508 20.3669C44.3684 20.1329 44.6107 19.8236 44.7779 19.4392C44.945 19.0381 45.0286 18.5868 45.0286 18.0854C45.0286 17.2998 44.828 16.7148 44.4269 16.3304C44.0257 15.9292 43.5494 15.7286 42.9978 15.7286C42.5298 15.7286 42.1203 15.8289 41.7693 16.0295C41.4183 16.2301 41.1509 16.556 40.967 17.0073C40.7831 17.4419 40.6912 18.0352 40.6912 18.7874V28.4148C41.1091 28.6822 41.5186 28.8911 41.9197 29.0416C42.3209 29.192 42.7554 29.2672 43.2234 29.2672Z" fill="white"/>
<path d="M36.9556 38.0171H36.4556V38.5171H36.9556V38.0171ZM37.6826 15.4278L37.2475 15.1815L37.246 15.1843L37.6826 15.4278ZM39.7886 13.4722L39.9987 13.926L40.0023 13.9242L39.7886 13.4722ZM46.1066 13.3719L45.9086 13.8311L45.9163 13.8343L46.1066 13.3719ZM48.0622 14.9765L47.6386 15.2425L47.6462 15.2538L48.0622 14.9765ZM48.338 19.715L47.8881 19.4965L47.8833 19.5071L48.338 19.715ZM47.1847 21.119L46.8979 20.7093L46.8915 20.714L47.1847 21.119ZM45.4297 21.8461L45.334 21.3553L44.9297 21.4342V21.8461H45.4297ZM45.4297 21.9213H44.9297V22.3585L45.363 22.4168L45.4297 21.9213ZM47.6861 22.6484L47.4356 23.0811L47.4405 23.0838L47.6861 22.6484ZM49.1904 24.2028L48.7477 24.4352L48.7512 24.4419L48.7549 24.4484L49.1904 24.2028ZM48.9397 29.7185L48.5186 29.449L48.5172 29.4512L48.9397 29.7185ZM46.8337 31.5989L46.6135 31.1499L46.6101 31.1516L46.8337 31.5989ZM42.5966 32.1504L42.6902 31.6593L42.6788 31.6571L42.6674 31.6555L42.5966 32.1504ZM41.6189 31.8997L41.4284 32.3621L41.4376 32.3657L41.6189 31.8997ZM40.6912 31.4735L40.9148 31.0263L40.1912 30.6645V31.4735H40.6912ZM40.6912 38.0171V38.5171H41.1912V38.0171H40.6912ZM45.179 28.5151L45.5446 28.8563L45.5501 28.8502L45.179 28.5151ZM45.4548 24.7293L45.029 24.9913L45.0349 25.001L45.0413 25.0104L45.4548 24.7293ZM44.4269 23.8016L44.2105 24.2524L44.2179 24.256L44.2255 24.2593L44.4269 23.8016ZM41.9949 23.5008H41.4949V24.0008H41.9949V23.5008ZM41.9949 20.6928V20.1928H41.4949V20.6928H41.9949ZM44.0508 20.3669L44.3331 20.7795L44.3403 20.7746L44.3474 20.7694L44.0508 20.3669ZM44.7779 19.4392L45.2364 19.6386L45.2394 19.6315L44.7779 19.4392ZM44.4269 16.3304L44.0732 16.684L44.0809 16.6914L44.4269 16.3304ZM40.967 17.0073L41.4275 17.2021L41.43 17.1959L40.967 17.0073ZM40.6912 28.4148H40.1912V28.6884L40.4217 28.8359L40.6912 28.4148ZM41.9197 29.0416L42.0953 28.5734L42.0953 28.5734L41.9197 29.0416ZM36.9556 38.0171H37.4556V18.7623H36.9556H36.4556V38.0171H36.9556ZM36.9556 18.7623H37.4556C37.4556 17.4643 37.6884 16.444 38.1193 15.6713L37.6826 15.4278L37.246 15.1843C36.7074 16.1499 36.4556 17.3526 36.4556 18.7623H36.9556ZM37.6826 15.4278L38.1178 15.6741C38.569 14.8769 39.1933 14.2988 39.9987 13.9259L39.7886 13.4722L39.5786 13.0185C38.5788 13.4813 37.7991 14.2069 37.2475 15.1815L37.6826 15.4278ZM39.7886 13.4722L40.0023 13.9242C40.8419 13.5273 41.8442 13.3204 43.0229 13.3204V12.8204V12.3204C41.7278 12.3204 40.5739 12.5479 39.575 13.0202L39.7886 13.4722ZM43.0229 12.8204V13.3204C44.1775 13.3204 45.1343 13.497 45.9086 13.831L46.1066 13.3719L46.3047 12.9128C45.3741 12.5114 44.2751 12.3204 43.0229 12.3204V12.8204ZM46.1066 13.3719L45.9163 13.8343C46.6812 14.1492 47.2477 14.6195 47.6388 15.2424L48.0622 14.9765L48.4857 14.7106C47.9742 13.8961 47.2369 13.2966 46.297 12.9096L46.1066 13.3719ZM48.0622 14.9765L47.6462 15.2538C48.0464 15.8542 48.2642 16.6367 48.2642 17.6341H48.7642H49.2642C49.2642 16.492 49.014 15.5028 48.4782 14.6991L48.0622 14.9765ZM48.7642 17.6341H48.2642C48.2642 18.378 48.1325 18.9936 47.8882 19.4965L48.338 19.715L48.7878 19.9335C49.1118 19.2664 49.2642 18.4947 49.2642 17.6341H48.7642ZM48.338 19.715L47.8833 19.5071C47.6509 20.0154 47.3227 20.4121 46.898 20.7094L47.1847 21.119L47.4714 21.5286C48.0496 21.1239 48.4902 20.5846 48.7927 19.9229L48.338 19.715ZM47.1847 21.119L46.8915 20.714C46.4746 21.0159 45.9598 21.2332 45.334 21.3553L45.4297 21.8461L45.5255 22.3368C46.2702 22.1915 46.9254 21.9241 47.478 21.524L47.1847 21.119ZM45.4297 21.8461H44.9297V21.9213H45.4297H45.9297V21.8461H45.4297ZM45.4297 21.9213L45.363 22.4168C46.1797 22.5268 46.8669 22.7518 47.4356 23.0811L47.6861 22.6484L47.9367 22.2156C47.2351 21.8095 46.418 21.5498 45.4964 21.4258L45.4297 21.9213ZM47.6861 22.6484L47.4405 23.0838C48.0077 23.4038 48.4411 23.8511 48.7477 24.4352L49.1904 24.2028L49.6331 23.9704C49.2378 23.2174 48.6683 22.6283 47.9318 22.2129L47.6861 22.6484ZM49.1904 24.2028L48.7549 24.4484C49.0678 25.003 49.242 25.7466 49.242 26.7099H49.742H50.242C50.242 25.6341 50.0485 24.7063 49.6259 23.9571L49.1904 24.2028ZM49.742 26.7099H49.242C49.242 27.8018 48.9933 28.7072 48.5186 29.449L48.9397 29.7185L49.3609 29.988C49.9558 29.0584 50.242 27.9581 50.242 26.7099H49.742ZM48.9397 29.7185L48.5172 29.4512C48.0493 30.1907 47.418 30.7553 46.6135 31.15L46.8337 31.5989L47.0539 32.0478C48.0211 31.5733 48.7938 30.8843 49.3623 29.9858L48.9397 29.7185ZM46.8337 31.5989L46.6101 31.1516C45.8172 31.5481 44.9255 31.7507 43.9254 31.7507V32.2507V32.7507C45.0648 32.7507 46.112 32.5187 47.0573 32.0461L46.8337 31.5989ZM43.9254 32.2507V31.7507C43.4081 31.7507 42.9992 31.7181 42.6902 31.6593L42.5966 32.1504L42.5031 32.6416C42.8961 32.7164 43.373 32.7507 43.9254 32.7507V32.2507ZM42.5966 32.1504L42.6674 31.6555C42.3505 31.6102 42.062 31.5356 41.8001 31.4337L41.6189 31.8997L41.4376 32.3657C41.7774 32.4978 42.1408 32.5904 42.5259 32.6454L42.5966 32.1504ZM41.6189 31.8997L41.8092 31.4374C41.5384 31.3259 41.2404 31.1891 40.9148 31.0263L40.6912 31.4735L40.4676 31.9207C40.8106 32.0922 41.131 32.2396 41.4285 32.3621L41.6189 31.8997ZM40.6912 31.4735H40.1912V38.0171H40.6912H41.1912V31.4735H40.6912ZM40.6912 38.0171V37.5171H36.9556V38.0171V38.5171H40.6912V38.0171ZM43.2234 29.2672V29.7672C44.1651 29.7672 44.9618 29.4806 45.5445 28.8562L45.179 28.5151L44.8135 28.1739C44.4602 28.5524 43.9532 28.7672 43.2234 28.7672V29.2672ZM45.179 28.5151L45.5501 28.8502C46.123 28.2158 46.381 27.3731 46.381 26.384H45.881H45.381C45.381 27.2 45.171 27.778 44.8079 28.1799L45.179 28.5151ZM45.881 26.384H46.381C46.381 25.6333 46.2256 24.9737 45.8682 24.4481L45.4548 24.7293L45.0413 25.0104C45.2522 25.3206 45.381 25.7641 45.381 26.384H45.881ZM45.4548 24.7293L45.8806 24.4672C45.5665 23.9568 45.1498 23.5735 44.6282 23.344L44.4269 23.8016L44.2255 24.2593C44.5396 24.3975 44.8082 24.6326 45.029 24.9913L45.4548 24.7293ZM44.4269 23.8016L44.6432 23.3509C44.1597 23.1188 43.6514 23.0008 43.1231 23.0008V23.5008V24.0008C43.4975 24.0008 43.8583 24.0833 44.2105 24.2524L44.4269 23.8016ZM43.1231 23.5008V23.0008H41.9949V23.5008V24.0008H43.1231V23.5008ZM41.9949 23.5008H42.4949V20.6928H41.9949H41.4949V23.5008H41.9949ZM41.9949 20.6928V21.1928H42.8975V20.6928V20.1928H41.9949V20.6928ZM42.8975 20.6928V21.1928C43.4317 21.1928 43.9188 21.063 44.3331 20.7795L44.0508 20.3669L43.7684 19.9542C43.5476 20.1053 43.2659 20.1928 42.8975 20.1928V20.6928ZM44.0508 20.3669L44.3474 20.7694C44.7404 20.4798 45.0364 20.0986 45.2364 19.6386L44.7779 19.4392L44.3193 19.2399C44.185 19.5487 43.9963 19.7859 43.7542 19.9643L44.0508 20.3669ZM44.7779 19.4392L45.2394 19.6315C45.4355 19.1608 45.5286 18.6427 45.5286 18.0854H45.0286H44.5286C44.5286 18.5308 44.4545 18.9153 44.3163 19.2469L44.7779 19.4392ZM45.0286 18.0854H45.5286C45.5286 17.2209 45.3073 16.4816 44.7728 15.9694L44.4269 16.3304L44.0809 16.6914C44.3487 16.948 44.5286 17.3787 44.5286 18.0854H45.0286ZM44.4269 16.3304L44.7804 15.9768C44.2885 15.4849 43.6861 15.2286 42.9978 15.2286V15.7286V16.2286C43.4126 16.2286 43.7629 16.3735 44.0733 16.6839L44.4269 16.3304ZM42.9978 15.7286V15.2286C42.4566 15.2286 41.959 15.3452 41.5212 15.5954L41.7693 16.0295L42.0174 16.4636C42.2816 16.3126 42.6029 16.2286 42.9978 16.2286V15.7286ZM41.7693 16.0295L41.5212 15.5954C41.0544 15.8622 40.7211 16.2858 40.504 16.8186L40.967 17.0073L41.43 17.1959C41.5807 16.8262 41.7822 16.598 42.0174 16.4636L41.7693 16.0295ZM40.967 17.0073L40.5065 16.8125C40.2857 17.3344 40.1912 18.0035 40.1912 18.7874H40.6912H41.1912C41.1912 18.067 41.2806 17.5493 41.4275 17.2021L40.967 17.0073ZM40.6912 18.7874H40.1912V28.4148H40.6912H41.1912V18.7874H40.6912ZM40.6912 28.4148L40.4217 28.8359C40.8646 29.1194 41.3054 29.3452 41.7442 29.5097L41.9197 29.0416L42.0953 28.5734C41.7317 28.4371 41.3535 28.245 40.9607 27.9936L40.6912 28.4148ZM41.9197 29.0416L41.7442 29.5097C42.2064 29.6831 42.701 29.7672 43.2234 29.7672V29.2672V28.7672C42.8098 28.7672 42.4353 28.7009 42.0953 28.5734L41.9197 29.0416Z" fill="white" mask="url(#path-5-outside-2_2350_4393)"/>
<mask id="path-7-outside-3_2350_4393" maskUnits="userSpaceOnUse" x="49" y="12" width="15" height="22" fill="black">
<rect fill="white" x="49" y="12" width="15" height="22"/>
<path d="M55.6596 32.07V27.169L51 14.0594H53.197L55.5389 21.0367C55.6676 21.423 55.8286 21.8817 56.0217 22.4129C56.2149 22.944 56.3919 23.4671 56.5529 23.9821C56.7299 24.4811 56.8587 24.8915 56.9391 25.2134H57.0357C57.9531 24.1994 58.6694 23.1371 59.1844 22.0266C59.7156 20.8999 60.0858 19.6847 60.295 18.381C60.5203 17.0612 60.633 15.6207 60.633 14.0594H62.7334C62.7334 15.7172 62.5886 17.2785 62.2989 18.7431C62.0091 20.1917 61.5021 21.6 60.7779 22.9681C60.0697 24.3201 59.0718 25.6963 57.7841 27.0966V32.07H55.6596Z"/>
</mask>
<path d="M55.6596 32.07V27.169L51 14.0594H53.197L55.5389 21.0367C55.6676 21.423 55.8286 21.8817 56.0217 22.4129C56.2149 22.944 56.3919 23.4671 56.5529 23.9821C56.7299 24.4811 56.8587 24.8915 56.9391 25.2134H57.0357C57.9531 24.1994 58.6694 23.1371 59.1844 22.0266C59.7156 20.8999 60.0858 19.6847 60.295 18.381C60.5203 17.0612 60.633 15.6207 60.633 14.0594H62.7334C62.7334 15.7172 62.5886 17.2785 62.2989 18.7431C62.0091 20.1917 61.5021 21.6 60.7779 22.9681C60.0697 24.3201 59.0718 25.6963 57.7841 27.0966V32.07H55.6596Z" fill="white"/>
<path d="M55.6596 32.07H54.4596V33.27H55.6596V32.07ZM55.6596 27.169H56.8596V26.9621L56.7903 26.7671L55.6596 27.169ZM51 14.0594V12.8594H49.2999L49.8693 14.4613L51 14.0594ZM53.197 14.0594L54.3346 13.6776L54.06 12.8594H53.197V14.0594ZM55.5389 21.0367L56.6773 20.6572L56.6765 20.6549L55.5389 21.0367ZM56.0217 22.4129L54.894 22.8229L54.894 22.8229L56.0217 22.4129ZM56.5529 23.9821L55.4075 24.3401L55.4143 24.3619L55.4219 24.3834L56.5529 23.9821ZM56.9391 25.2134L55.775 25.5045L56.0022 26.4134H56.9391V25.2134ZM57.0357 25.2134V26.4134H57.5683L57.9256 26.0185L57.0357 25.2134ZM59.1844 22.0266L58.099 21.5149L58.0958 21.5217L59.1844 22.0266ZM60.295 18.381L59.1121 18.179L59.1102 18.1908L60.295 18.381ZM60.633 14.0594V12.8594H59.433V14.0594H60.633ZM62.7334 14.0594H63.9334V12.8594H62.7334V14.0594ZM62.2989 18.7431L63.4756 18.9785L63.476 18.976L62.2989 18.7431ZM60.7779 22.9681L59.7173 22.4067L59.7149 22.4113L60.7779 22.9681ZM57.7841 27.0966L56.9008 26.2843L56.5841 26.6287V27.0966H57.7841ZM57.7841 32.07V33.27H58.9841V32.07H57.7841ZM55.6596 32.07H56.8596V27.169H55.6596H54.4596V32.07H55.6596ZM55.6596 27.169L56.7903 26.7671L52.1307 13.6575L51 14.0594L49.8693 14.4613L54.5289 27.5709L55.6596 27.169ZM51 14.0594V15.2594H53.197V14.0594V12.8594H51V14.0594ZM53.197 14.0594L52.0594 14.4413L54.4012 21.4185L55.5389 21.0367L56.6765 20.6549L54.3346 13.6776L53.197 14.0594ZM55.5389 21.0367L54.4004 21.4162C54.5336 21.8158 54.6984 22.2852 54.894 22.8229L56.0217 22.4129L57.1495 22.0028C56.9587 21.4782 56.8016 21.0302 56.6773 20.6572L55.5389 21.0367ZM56.0217 22.4129L54.894 22.8229C55.0811 23.3376 55.2523 23.8433 55.4075 24.3401L56.5529 23.9821L57.6982 23.6242C57.5316 23.0908 57.3486 22.5504 57.1495 22.0028L56.0217 22.4129ZM56.5529 23.9821L55.4219 24.3834C55.5927 24.8647 55.7076 25.235 55.775 25.5045L56.9391 25.2134L58.1033 24.9224C58.0097 24.5481 57.8671 24.0975 57.6838 23.5809L56.5529 23.9821ZM56.9391 25.2134V26.4134H57.0357V25.2134V24.0134H56.9391V25.2134ZM57.0357 25.2134L57.9256 26.0185C58.9146 24.9254 59.7017 23.7635 60.2731 22.5314L59.1844 22.0266L58.0958 21.5217C57.6371 22.5108 56.9917 23.4735 56.1459 24.4083L57.0357 25.2134ZM59.1844 22.0266L60.2699 22.5383C60.8519 21.3037 61.2538 19.9795 61.4798 18.5712L60.295 18.381L59.1102 18.1908C58.9177 19.3899 58.5793 20.4961 58.099 21.5149L59.1844 22.0266ZM60.295 18.381L61.4779 18.583C61.7163 17.1865 61.833 15.6775 61.833 14.0594H60.633H59.433C59.433 15.5638 59.3244 16.9358 59.1121 18.179L60.295 18.381ZM60.633 14.0594V15.2594H62.7334V14.0594V12.8594H60.633V14.0594ZM62.7334 14.0594H61.5334C61.5334 15.6475 61.3947 17.1302 61.1217 18.5103L62.2989 18.7431L63.476 18.976C63.7825 17.4268 63.9334 15.787 63.9334 14.0594H62.7334ZM62.2989 18.7431L61.1222 18.5078C60.8563 19.8373 60.3899 21.1362 59.7173 22.4067L60.7779 22.9681L61.8384 23.5296C62.6144 22.0639 63.162 20.5461 63.4756 18.9785L62.2989 18.7431ZM60.7779 22.9681L59.7149 22.4113C59.0654 23.6513 58.1343 24.943 56.9008 26.2843L57.7841 27.0966L58.6675 27.9088C60.0093 26.4496 61.074 24.989 61.8409 23.525L60.7779 22.9681ZM57.7841 27.0966H56.5841V32.07H57.7841H58.9841V27.0966H57.7841ZM57.7841 32.07V30.87H55.6596V32.07V33.27H57.7841V32.07Z" fill="white" mask="url(#path-7-outside-3_2350_4393)"/>
</svg>
