<svg width="68" height="41" viewBox="0 0 68 41" fill="none" xmlns="http://www.w3.org/2000/svg">
<path d="M2.41462 29C1.98238 29 1.76625 28.8232 1.76625 28.4695V27.9037C1.76625 27.5264 1.88414 27.1767 2.11991 26.8545L11.3857 14.0522V14.005C11.0713 14.0207 10.757 14.0286 10.4426 14.0286H2.79185C2.35961 14.0286 2.14348 13.8518 2.14348 13.4981V12.6258C2.14348 12.2721 2.35961 12.0953 2.79185 12.0953H13.6609C14.0931 12.0953 14.3092 12.2721 14.3092 12.6258V12.9912C14.3092 13.2506 14.2306 13.4903 14.0735 13.7103L4.6898 27.0431V27.0903C4.90199 27.0745 5.21636 27.0667 5.63288 27.0667H13.9202C14.3524 27.0667 14.5686 27.2435 14.5686 27.5972V28.4695C14.5686 28.8232 14.3524 29 13.9202 29H2.41462Z" fill="black"/>
<path d="M2.11991 26.8545L2.92695 27.445L2.93 27.4408L2.11991 26.8545ZM11.3857 14.0522L12.1958 14.6385L12.3857 14.3761V14.0522H11.3857ZM11.3857 14.005H12.3857V12.9538L11.3357 13.0063L11.3857 14.005ZM14.0735 13.7103L13.2597 13.1291L13.2557 13.1348L14.0735 13.7103ZM4.6898 27.0431L3.87203 26.4676L3.6898 26.7265V27.0431H4.6898ZM4.6898 27.0903H3.6898V28.1671L4.76367 28.0875L4.6898 27.0903ZM2.41462 29V28C2.30935 28 2.41612 27.9744 2.56158 28.0934C2.64016 28.1577 2.69859 28.2402 2.73287 28.3243C2.76465 28.4023 2.76625 28.458 2.76625 28.4695H1.76625H0.766253C0.766253 28.8594 0.895116 29.3141 1.29511 29.6413C1.65669 29.9372 2.08765 30 2.41462 30V29ZM1.76625 28.4695H2.76625V27.9037H1.76625H0.766253V28.4695H1.76625ZM1.76625 27.9037H2.76625C2.76625 27.7516 2.80876 27.6065 2.92694 27.445L2.11991 26.8545L1.31288 26.264C0.959513 26.7469 0.766253 27.3013 0.766253 27.9037H1.76625ZM2.11991 26.8545L2.93 27.4408L12.1958 14.6385L11.3857 14.0522L10.5756 13.4659L1.30982 26.2682L2.11991 26.8545ZM11.3857 14.0522H12.3857V14.005H11.3857H10.3857V14.0522H11.3857ZM11.3857 14.005L11.3357 13.0063C11.038 13.0212 10.7403 13.0286 10.4426 13.0286V14.0286V15.0286C10.7736 15.0286 11.1046 15.0203 11.4356 15.0038L11.3857 14.005ZM10.4426 14.0286V13.0286H2.79185V14.0286V15.0286H10.4426V14.0286ZM2.79185 14.0286V13.0286C2.68658 13.0286 2.79335 13.003 2.93881 13.122C3.01739 13.1863 3.07582 13.2688 3.1101 13.3529C3.14189 13.4309 3.14348 13.4866 3.14348 13.4981H2.14348H1.14348C1.14348 13.888 1.27235 14.3427 1.67234 14.6699C2.03392 14.9658 2.46488 15.0286 2.79185 15.0286V14.0286ZM2.14348 13.4981H3.14348V12.6258H2.14348H1.14348V13.4981H2.14348ZM2.14348 12.6258H3.14348C3.14348 12.6373 3.14189 12.693 3.1101 12.771C3.07582 12.8551 3.01739 12.9376 2.93881 13.0019C2.79335 13.1209 2.68658 13.0953 2.79185 13.0953V12.0953V11.0953C2.46488 11.0953 2.03392 11.1581 1.67234 11.4539C1.27235 11.7812 1.14348 12.2359 1.14348 12.6258H2.14348ZM2.79185 12.0953V13.0953H13.6609V12.0953V11.0953H2.79185V12.0953ZM13.6609 12.0953V13.0953C13.7661 13.0953 13.6594 13.1209 13.5139 13.0019C13.4353 12.9376 13.3769 12.8551 13.3426 12.771C13.3108 12.693 13.3092 12.6373 13.3092 12.6258H14.3092H15.3092C15.3092 12.2359 15.1804 11.7812 14.7804 11.4539C14.4188 11.1581 13.9878 11.0953 13.6609 11.0953V12.0953ZM14.3092 12.6258H13.3092V12.9912H14.3092H15.3092V12.6258H14.3092ZM14.3092 12.9912H13.3092C13.3092 13.0329 13.3013 13.0709 13.2597 13.1291L14.0735 13.7103L14.8872 14.2915C15.16 13.9096 15.3092 13.4683 15.3092 12.9912H14.3092ZM14.0735 13.7103L13.2557 13.1348L3.87203 26.4676L4.6898 27.0431L5.50757 27.6187L14.8912 14.2859L14.0735 13.7103ZM4.6898 27.0431H3.6898V27.0903H4.6898H5.6898V27.0431H4.6898ZM4.6898 27.0903L4.76367 28.0875C4.93793 28.0746 5.22244 28.0667 5.63288 28.0667V27.0667V26.0667C5.21027 26.0667 4.86606 26.0745 4.61593 26.093L4.6898 27.0903ZM5.63288 27.0667V28.0667H13.9202V27.0667V26.0667H5.63288V27.0667ZM13.9202 27.0667V28.0667C14.0255 28.0667 13.9187 28.0923 13.7732 27.9733C13.6947 27.909 13.6362 27.8265 13.602 27.7424C13.5702 27.6644 13.5686 27.6087 13.5686 27.5972H14.5686H15.5686C15.5686 27.2073 15.4397 26.7526 15.0397 26.4253C14.6781 26.1295 14.2472 26.0667 13.9202 26.0667V27.0667ZM14.5686 27.5972H13.5686V28.4695H14.5686H15.5686V27.5972H14.5686ZM14.5686 28.4695H13.5686C13.5686 28.458 13.5702 28.4023 13.602 28.3243C13.6362 28.2402 13.6947 28.1577 13.7732 28.0934C13.9187 27.9744 14.0255 28 13.9202 28V29V30C14.2472 30 14.6781 29.9372 15.0397 29.6413C15.4397 29.3141 15.5686 28.8594 15.5686 28.4695H14.5686ZM13.9202 29V28H2.41462V29V30H13.9202V29Z" fill="black"/>
<mask id="path-3-inside-1_2269_3985" fill="white">
<path d="M22.5905 30.345C21.1185 30.345 19.8535 29.954 18.7955 29.172C17.7375 28.367 16.9325 27.24 16.3805 25.791C15.8285 24.319 15.5525 22.6055 15.5525 20.6505C15.5525 17.4305 16.208 14.9925 17.519 13.3365C18.83 11.6575 20.578 10.818 22.763 10.818C23.66 10.818 24.442 10.9445 25.109 11.1975C25.799 11.4275 26.397 11.7495 26.903 12.1635C27.409 12.5775 27.846 13.049 28.214 13.578H28.352L28.8005 11.163H33.1475V24.0315C33.1475 24.8135 33.2855 25.3425 33.5615 25.6185C33.8605 25.8945 34.194 26.0325 34.562 26.0325C34.723 26.0325 34.907 26.0095 35.114 25.9635C35.321 25.9175 35.4705 25.883 35.5625 25.86V29.8965C35.4475 29.9655 35.252 30.0345 34.976 30.1035C34.7 30.1725 34.401 30.23 34.079 30.276C33.78 30.322 33.504 30.345 33.251 30.345C32.101 30.345 31.1695 30.138 30.4565 29.724C29.7435 29.31 29.1915 28.574 28.8005 27.516H28.4555C28.1105 28.022 27.662 28.4935 27.11 28.9305C26.558 29.3675 25.9025 29.7125 25.1435 29.9655C24.3845 30.2185 23.5335 30.345 22.5905 30.345ZM24.488 26.3085C25.431 26.3085 26.1785 26.113 26.7305 25.722C27.3055 25.331 27.7195 24.733 27.9725 23.928C28.2255 23.1 28.352 22.065 28.352 20.823V20.616C28.352 18.776 28.0645 17.3845 27.4895 16.4415C26.9375 15.4755 25.914 14.9925 24.419 14.9925C23.2 14.9925 22.2915 15.4755 21.6935 16.4415C21.0955 17.4075 20.7965 18.822 20.7965 20.685C20.7965 22.525 21.0955 23.928 21.6935 24.894C22.2915 25.837 23.223 26.3085 24.488 26.3085Z"/>
</mask>
<path d="M22.5905 30.345C21.1185 30.345 19.8535 29.954 18.7955 29.172C17.7375 28.367 16.9325 27.24 16.3805 25.791C15.8285 24.319 15.5525 22.6055 15.5525 20.6505C15.5525 17.4305 16.208 14.9925 17.519 13.3365C18.83 11.6575 20.578 10.818 22.763 10.818C23.66 10.818 24.442 10.9445 25.109 11.1975C25.799 11.4275 26.397 11.7495 26.903 12.1635C27.409 12.5775 27.846 13.049 28.214 13.578H28.352L28.8005 11.163H33.1475V24.0315C33.1475 24.8135 33.2855 25.3425 33.5615 25.6185C33.8605 25.8945 34.194 26.0325 34.562 26.0325C34.723 26.0325 34.907 26.0095 35.114 25.9635C35.321 25.9175 35.4705 25.883 35.5625 25.86V29.8965C35.4475 29.9655 35.252 30.0345 34.976 30.1035C34.7 30.1725 34.401 30.23 34.079 30.276C33.78 30.322 33.504 30.345 33.251 30.345C32.101 30.345 31.1695 30.138 30.4565 29.724C29.7435 29.31 29.1915 28.574 28.8005 27.516H28.4555C28.1105 28.022 27.662 28.4935 27.11 28.9305C26.558 29.3675 25.9025 29.7125 25.1435 29.9655C24.3845 30.2185 23.5335 30.345 22.5905 30.345ZM24.488 26.3085C25.431 26.3085 26.1785 26.113 26.7305 25.722C27.3055 25.331 27.7195 24.733 27.9725 23.928C28.2255 23.1 28.352 22.065 28.352 20.823V20.616C28.352 18.776 28.0645 17.3845 27.4895 16.4415C26.9375 15.4755 25.914 14.9925 24.419 14.9925C23.2 14.9925 22.2915 15.4755 21.6935 16.4415C21.0955 17.4075 20.7965 18.822 20.7965 20.685C20.7965 22.525 21.0955 23.928 21.6935 24.894C22.2915 25.837 23.223 26.3085 24.488 26.3085Z" fill="black"/>
<path d="M18.7955 29.172L18.7349 29.2516L18.7361 29.2524L18.7955 29.172ZM16.3805 25.791L16.2869 25.8261L16.2871 25.8266L16.3805 25.791ZM17.519 13.3365L17.5974 13.3986L17.5978 13.398L17.519 13.3365ZM25.109 11.1975L25.0735 11.2911L25.0774 11.2924L25.109 11.1975ZM26.903 12.1635L26.8397 12.2409L26.8397 12.2409L26.903 12.1635ZM28.214 13.578L28.1319 13.6351L28.1617 13.678H28.214V13.578ZM28.352 13.578V13.678H28.4351L28.4503 13.5963L28.352 13.578ZM28.8005 11.163V11.063H28.7174L28.7022 11.1447L28.8005 11.163ZM33.1475 11.163H33.2475V11.063H33.1475V11.163ZM33.5615 25.6185L33.4907 25.6893L33.4937 25.692L33.5615 25.6185ZM35.114 25.9635L35.0923 25.8659L35.0923 25.8659L35.114 25.9635ZM35.5625 25.86H35.6625V25.7319L35.5382 25.763L35.5625 25.86ZM35.5625 29.8965L35.6139 29.9822L35.6625 29.9531V29.8965H35.5625ZM34.976 30.1035L35.0003 30.2005L35.0003 30.2005L34.976 30.1035ZM34.079 30.276L34.0649 30.177L34.0638 30.1772L34.079 30.276ZM30.4565 29.724L30.5067 29.6375L30.5067 29.6375L30.4565 29.724ZM28.8005 27.516L28.8943 27.4813L28.8702 27.416H28.8005V27.516ZM28.4555 27.516V27.416H28.4027L28.3729 27.4597L28.4555 27.516ZM27.11 28.9305L27.1721 29.0089L27.1721 29.0089L27.11 28.9305ZM25.1435 29.9655L25.1119 29.8706L25.1435 29.9655ZM26.7305 25.722L26.6743 25.6393L26.6727 25.6404L26.7305 25.722ZM27.9725 23.928L28.0679 23.958L28.0681 23.9572L27.9725 23.928ZM27.4895 16.4415L27.4026 16.4911L27.4041 16.4936L27.4895 16.4415ZM21.6935 16.4415L21.7785 16.4941L21.7785 16.4941L21.6935 16.4415ZM21.6935 24.894L21.6085 24.9466L21.609 24.9476L21.6935 24.894ZM22.5905 30.345V30.245C21.1372 30.245 19.8937 29.8594 18.8549 29.0916L18.7955 29.172L18.7361 29.2524C19.8133 30.0486 21.0998 30.445 22.5905 30.445V30.345ZM18.7955 29.172L18.8561 29.0924C17.8152 28.3005 17.0204 27.1899 16.4739 25.7554L16.3805 25.791L16.2871 25.8266C16.8446 27.2901 17.6598 28.4335 18.7349 29.2516L18.7955 29.172ZM16.3805 25.791L16.4741 25.7559C15.9272 24.2975 15.6525 22.5963 15.6525 20.6505H15.5525H15.4525C15.4525 22.6147 15.7298 24.3405 16.2869 25.8261L16.3805 25.791ZM15.5525 20.6505H15.6525C15.6525 17.4418 16.3061 15.0298 17.5974 13.3986L17.519 13.3365L17.4406 13.2744C16.1099 14.9552 15.4525 17.4192 15.4525 20.6505H15.5525ZM17.519 13.3365L17.5978 13.398C18.8893 11.744 20.6079 10.918 22.763 10.918V10.818V10.718C20.5481 10.718 18.7707 11.571 17.4402 13.275L17.519 13.3365ZM22.763 10.818V10.918C23.6509 10.918 24.4204 11.0432 25.0735 11.291L25.109 11.1975L25.1445 11.104C24.4636 10.8458 23.6691 10.718 22.763 10.718V10.818ZM25.109 11.1975L25.0774 11.2924C25.7571 11.519 26.3441 11.8354 26.8397 12.2409L26.903 12.1635L26.9663 12.0861C26.4499 11.6636 25.8409 11.336 25.1406 11.1026L25.109 11.1975ZM26.903 12.1635L26.8397 12.2409C27.3386 12.6491 27.7693 13.1138 28.1319 13.6351L28.214 13.578L28.2961 13.5209C27.9227 12.9842 27.4794 12.5059 26.9663 12.0861L26.903 12.1635ZM28.214 13.578V13.678H28.352V13.578V13.478H28.214V13.578ZM28.352 13.578L28.4503 13.5963L28.8988 11.1813L28.8005 11.163L28.7022 11.1447L28.2537 13.5597L28.352 13.578ZM28.8005 11.163V11.263H33.1475V11.163V11.063H28.8005V11.163ZM33.1475 11.163H33.0475V24.0315H33.1475H33.2475V11.163H33.1475ZM33.1475 24.0315H33.0475C33.0475 24.8169 33.1844 25.3828 33.4908 25.6892L33.5615 25.6185L33.6322 25.5478C33.3866 25.3022 33.2475 24.8101 33.2475 24.0315H33.1475ZM33.5615 25.6185L33.4937 25.692C33.809 25.9831 34.1661 26.1325 34.562 26.1325V26.0325V25.9325C34.2219 25.9325 33.912 25.8059 33.6293 25.545L33.5615 25.6185ZM34.562 26.0325V26.1325C34.7322 26.1325 34.9237 26.1082 35.1357 26.0611L35.114 25.9635L35.0923 25.8659C34.8903 25.9108 34.7138 25.9325 34.562 25.9325V26.0325ZM35.114 25.9635L35.1357 26.0611C35.3428 26.0151 35.4934 25.9804 35.5868 25.957L35.5625 25.86L35.5382 25.763C35.4476 25.7856 35.2992 25.8199 35.0923 25.8659L35.114 25.9635ZM35.5625 25.86H35.4625V29.8965H35.5625H35.6625V25.86H35.5625ZM35.5625 29.8965L35.5111 29.8108C35.4096 29.8716 35.2264 29.9378 34.9517 30.0065L34.976 30.1035L35.0003 30.2005C35.2776 30.1312 35.4854 30.0594 35.6139 29.9822L35.5625 29.8965ZM34.976 30.1035L34.9517 30.0065C34.6795 30.0745 34.3839 30.1314 34.0649 30.177L34.079 30.276L34.0931 30.375C34.4181 30.3286 34.7205 30.2705 35.0003 30.2005L34.976 30.1035ZM34.079 30.276L34.0638 30.1772C33.7689 30.2225 33.498 30.245 33.251 30.245V30.345V30.445C33.51 30.445 33.7911 30.4215 34.0942 30.3748L34.079 30.276ZM33.251 30.345V30.245C32.112 30.245 31.1996 30.0398 30.5067 29.6375L30.4565 29.724L30.4063 29.8105C31.1394 30.2362 32.09 30.445 33.251 30.445V30.345ZM30.4565 29.724L30.5067 29.6375C29.8201 29.2389 29.2802 28.5255 28.8943 27.4813L28.8005 27.516L28.7067 27.5507C29.1028 28.6225 29.6669 29.3811 30.4063 29.8105L30.4565 29.724ZM28.8005 27.516V27.416H28.4555V27.516V27.616H28.8005V27.516ZM28.4555 27.516L28.3729 27.4597C28.0344 27.9562 27.5932 28.4205 27.0479 28.8521L27.11 28.9305L27.1721 29.0089C27.7308 28.5665 28.1866 28.0878 28.5381 27.5723L28.4555 27.516ZM27.11 28.9305L27.0479 28.8521C26.5062 29.281 25.8613 29.6208 25.1119 29.8706L25.1435 29.9655L25.1751 30.0604C25.9437 29.8042 26.6098 29.454 27.1721 29.0089L27.11 28.9305ZM25.1435 29.9655L25.1119 29.8706C24.3647 30.1197 23.5246 30.245 22.5905 30.245V30.345V30.445C23.5424 30.445 24.4043 30.3173 25.1751 30.0604L25.1435 29.9655ZM24.488 26.3085V26.4085C25.4438 26.4085 26.2139 26.2105 26.7883 25.8036L26.7305 25.722L26.6727 25.6404C26.1431 26.0155 25.4182 26.2085 24.488 26.2085V26.3085ZM26.7305 25.722L26.7867 25.8047C27.3841 25.3985 27.8096 24.7797 28.0679 23.958L27.9725 23.928L27.8771 23.898C27.6294 24.6863 27.2269 25.2635 26.6743 25.6393L26.7305 25.722ZM27.9725 23.928L28.0681 23.9572C28.325 23.1166 28.452 22.071 28.452 20.823H28.352H28.252C28.252 22.059 28.126 23.0834 27.8769 23.8988L27.9725 23.928ZM28.352 20.823H28.452V20.616H28.352H28.252V20.823H28.352ZM28.352 20.616H28.452C28.452 18.7685 28.1639 17.3554 27.5749 16.3894L27.4895 16.4415L27.4041 16.4936C27.9651 17.4136 28.252 18.7835 28.252 20.616H28.352ZM27.4895 16.4415L27.5763 16.3919C27.0005 15.3842 25.9359 14.8925 24.419 14.8925V14.9925V15.0925C25.8921 15.0925 26.8745 15.5668 27.4027 16.4911L27.4895 16.4415ZM24.419 14.9925V14.8925C23.1684 14.8925 22.2262 15.3909 21.6085 16.3889L21.6935 16.4415L21.7785 16.4941C22.3568 15.5601 23.2316 15.0925 24.419 15.0925V14.9925ZM21.6935 16.4415L21.6085 16.3889C20.9963 17.3778 20.6965 18.8141 20.6965 20.685H20.7965H20.8965C20.8965 18.8299 21.1947 17.4372 21.7785 16.4941L21.6935 16.4415ZM20.7965 20.685H20.6965C20.6965 22.5332 20.9964 23.9578 21.6085 24.9466L21.6935 24.894L21.7785 24.8414C21.1946 23.8982 20.8965 22.5168 20.8965 20.685H20.7965ZM21.6935 24.894L21.609 24.9476C22.2281 25.9237 23.1941 26.4085 24.488 26.4085V26.3085V26.2085C23.2519 26.2085 22.3549 25.7503 21.778 24.8404L21.6935 24.894Z" fill="black" mask="url(#path-3-inside-1_2269_3985)"/>
<mask id="path-5-outside-2_2269_3985" maskUnits="userSpaceOnUse" x="36" y="10" width="15" height="27" fill="black">
<rect fill="white" x="36" y="10" width="15" height="27"/>
<path d="M36.9556 36.0171V16.7623C36.9556 15.4084 37.1979 14.2969 37.6826 13.4278C38.1841 12.5419 38.8861 11.8901 39.7886 11.4722C40.7079 11.0376 41.786 10.8204 43.0229 10.8204C44.2263 10.8204 45.2542 11.0042 46.1066 11.3719C46.9591 11.7229 47.6109 12.2578 48.0622 12.9765C48.5302 13.6785 48.7642 14.5644 48.7642 15.6341C48.7642 16.4364 48.6221 17.13 48.338 17.715C48.0706 18.3 47.6861 18.768 47.1847 19.119C46.7 19.47 46.115 19.7124 45.4297 19.8461V19.9213C46.2989 20.0383 47.051 20.2806 47.6861 20.6484C48.338 21.0161 48.8394 21.5342 49.1904 22.2028C49.5581 22.8546 49.742 23.6904 49.742 24.7099C49.742 25.8799 49.4746 26.8828 48.9397 27.7185C48.4216 28.5375 47.7196 29.1643 46.8337 29.5989C45.9646 30.0334 44.9951 30.2507 43.9254 30.2507C43.3906 30.2507 42.9476 30.2173 42.5966 30.1504C42.2456 30.1003 41.9197 30.0167 41.6189 29.8997C41.3347 29.7827 41.0255 29.6406 40.6912 29.4735V36.0171H36.9556ZM43.2234 27.2672C44.0591 27.2672 44.711 27.0165 45.179 26.5151C45.647 25.9969 45.881 25.2866 45.881 24.384C45.881 23.6987 45.7389 23.1471 45.4548 22.7293C45.1874 22.2947 44.8447 21.9855 44.4269 21.8016C44.009 21.6011 43.5744 21.5008 43.1231 21.5008H41.9949V18.6928H42.8975C43.3488 18.6928 43.7332 18.5841 44.0508 18.3669C44.3684 18.1329 44.6107 17.8236 44.7779 17.4392C44.945 17.0381 45.0286 16.5868 45.0286 16.0854C45.0286 15.2998 44.828 14.7148 44.4269 14.3304C44.0257 13.9292 43.5494 13.7286 42.9978 13.7286C42.5298 13.7286 42.1203 13.8289 41.7693 14.0295C41.4183 14.2301 41.1509 14.556 40.967 15.0073C40.7831 15.4419 40.6912 16.0352 40.6912 16.7874V26.4148C41.1091 26.6822 41.5186 26.8911 41.9197 27.0416C42.3209 27.192 42.7554 27.2672 43.2234 27.2672Z"/>
</mask>
<path d="M36.9556 36.0171V16.7623C36.9556 15.4084 37.1979 14.2969 37.6826 13.4278C38.1841 12.5419 38.8861 11.8901 39.7886 11.4722C40.7079 11.0376 41.786 10.8204 43.0229 10.8204C44.2263 10.8204 45.2542 11.0042 46.1066 11.3719C46.9591 11.7229 47.6109 12.2578 48.0622 12.9765C48.5302 13.6785 48.7642 14.5644 48.7642 15.6341C48.7642 16.4364 48.6221 17.13 48.338 17.715C48.0706 18.3 47.6861 18.768 47.1847 19.119C46.7 19.47 46.115 19.7124 45.4297 19.8461V19.9213C46.2989 20.0383 47.051 20.2806 47.6861 20.6484C48.338 21.0161 48.8394 21.5342 49.1904 22.2028C49.5581 22.8546 49.742 23.6904 49.742 24.7099C49.742 25.8799 49.4746 26.8828 48.9397 27.7185C48.4216 28.5375 47.7196 29.1643 46.8337 29.5989C45.9646 30.0334 44.9951 30.2507 43.9254 30.2507C43.3906 30.2507 42.9476 30.2173 42.5966 30.1504C42.2456 30.1003 41.9197 30.0167 41.6189 29.8997C41.3347 29.7827 41.0255 29.6406 40.6912 29.4735V36.0171H36.9556ZM43.2234 27.2672C44.0591 27.2672 44.711 27.0165 45.179 26.5151C45.647 25.9969 45.881 25.2866 45.881 24.384C45.881 23.6987 45.7389 23.1471 45.4548 22.7293C45.1874 22.2947 44.8447 21.9855 44.4269 21.8016C44.009 21.6011 43.5744 21.5008 43.1231 21.5008H41.9949V18.6928H42.8975C43.3488 18.6928 43.7332 18.5841 44.0508 18.3669C44.3684 18.1329 44.6107 17.8236 44.7779 17.4392C44.945 17.0381 45.0286 16.5868 45.0286 16.0854C45.0286 15.2998 44.828 14.7148 44.4269 14.3304C44.0257 13.9292 43.5494 13.7286 42.9978 13.7286C42.5298 13.7286 42.1203 13.8289 41.7693 14.0295C41.4183 14.2301 41.1509 14.556 40.967 15.0073C40.7831 15.4419 40.6912 16.0352 40.6912 16.7874V26.4148C41.1091 26.6822 41.5186 26.8911 41.9197 27.0416C42.3209 27.192 42.7554 27.2672 43.2234 27.2672Z" fill="black"/>
<path d="M36.9556 36.0171H36.4556V36.5171H36.9556V36.0171ZM37.6826 13.4278L37.2475 13.1815L37.246 13.1843L37.6826 13.4278ZM39.7886 11.4722L39.9987 11.926L40.0023 11.9242L39.7886 11.4722ZM46.1066 11.3719L45.9086 11.8311L45.9163 11.8343L46.1066 11.3719ZM48.0622 12.9765L47.6386 13.2425L47.6462 13.2538L48.0622 12.9765ZM48.338 17.715L47.8881 17.4965L47.8833 17.5071L48.338 17.715ZM47.1847 19.119L46.8979 18.7093L46.8915 18.714L47.1847 19.119ZM45.4297 19.8461L45.334 19.3553L44.9297 19.4342V19.8461H45.4297ZM45.4297 19.9213H44.9297V20.3585L45.363 20.4168L45.4297 19.9213ZM47.6861 20.6484L47.4356 21.0811L47.4405 21.0838L47.6861 20.6484ZM49.1904 22.2028L48.7477 22.4352L48.7512 22.4419L48.7549 22.4484L49.1904 22.2028ZM48.9397 27.7185L48.5186 27.449L48.5172 27.4512L48.9397 27.7185ZM46.8337 29.5989L46.6135 29.1499L46.6101 29.1516L46.8337 29.5989ZM42.5966 30.1504L42.6902 29.6593L42.6788 29.6571L42.6674 29.6555L42.5966 30.1504ZM41.6189 29.8997L41.4284 30.3621L41.4376 30.3657L41.6189 29.8997ZM40.6912 29.4735L40.9148 29.0263L40.1912 28.6645V29.4735H40.6912ZM40.6912 36.0171V36.5171H41.1912V36.0171H40.6912ZM45.179 26.5151L45.5446 26.8563L45.5501 26.8502L45.179 26.5151ZM45.4548 22.7293L45.029 22.9913L45.0349 23.001L45.0413 23.0104L45.4548 22.7293ZM44.4269 21.8016L44.2105 22.2524L44.2179 22.256L44.2255 22.2593L44.4269 21.8016ZM41.9949 21.5008H41.4949V22.0008H41.9949V21.5008ZM41.9949 18.6928V18.1928H41.4949V18.6928H41.9949ZM44.0508 18.3669L44.3331 18.7795L44.3403 18.7746L44.3474 18.7694L44.0508 18.3669ZM44.7779 17.4392L45.2364 17.6386L45.2394 17.6315L44.7779 17.4392ZM44.4269 14.3304L44.0732 14.684L44.0809 14.6914L44.4269 14.3304ZM40.967 15.0073L41.4275 15.2021L41.43 15.1959L40.967 15.0073ZM40.6912 26.4148H40.1912V26.6884L40.4217 26.8359L40.6912 26.4148ZM41.9197 27.0416L42.0953 26.5734L42.0953 26.5734L41.9197 27.0416ZM36.9556 36.0171H37.4556V16.7623H36.9556H36.4556V36.0171H36.9556ZM36.9556 16.7623H37.4556C37.4556 15.4643 37.6884 14.444 38.1193 13.6713L37.6826 13.4278L37.246 13.1843C36.7074 14.1499 36.4556 15.3526 36.4556 16.7623H36.9556ZM37.6826 13.4278L38.1178 13.6741C38.569 12.8769 39.1933 12.2988 39.9987 11.9259L39.7886 11.4722L39.5786 11.0185C38.5788 11.4813 37.7991 12.2069 37.2475 13.1815L37.6826 13.4278ZM39.7886 11.4722L40.0023 11.9242C40.8419 11.5273 41.8442 11.3204 43.0229 11.3204V10.8204V10.3204C41.7278 10.3204 40.5739 10.5479 39.575 11.0202L39.7886 11.4722ZM43.0229 10.8204V11.3204C44.1775 11.3204 45.1343 11.497 45.9086 11.831L46.1066 11.3719L46.3047 10.9128C45.3741 10.5114 44.2751 10.3204 43.0229 10.3204V10.8204ZM46.1066 11.3719L45.9163 11.8343C46.6812 12.1492 47.2477 12.6195 47.6388 13.2424L48.0622 12.9765L48.4857 12.7106C47.9742 11.8961 47.2369 11.2966 46.297 10.9096L46.1066 11.3719ZM48.0622 12.9765L47.6462 13.2538C48.0464 13.8542 48.2642 14.6367 48.2642 15.6341H48.7642H49.2642C49.2642 14.492 49.014 13.5028 48.4782 12.6991L48.0622 12.9765ZM48.7642 15.6341H48.2642C48.2642 16.378 48.1325 16.9936 47.8882 17.4965L48.338 17.715L48.7878 17.9335C49.1118 17.2664 49.2642 16.4947 49.2642 15.6341H48.7642ZM48.338 17.715L47.8833 17.5071C47.6509 18.0154 47.3227 18.4121 46.898 18.7094L47.1847 19.119L47.4714 19.5286C48.0496 19.1239 48.4902 18.5846 48.7927 17.9229L48.338 17.715ZM47.1847 19.119L46.8915 18.714C46.4746 19.0159 45.9598 19.2332 45.334 19.3553L45.4297 19.8461L45.5255 20.3368C46.2702 20.1915 46.9254 19.9241 47.478 19.524L47.1847 19.119ZM45.4297 19.8461H44.9297V19.9213H45.4297H45.9297V19.8461H45.4297ZM45.4297 19.9213L45.363 20.4168C46.1797 20.5268 46.8669 20.7518 47.4356 21.0811L47.6861 20.6484L47.9367 20.2156C47.2351 19.8095 46.418 19.5498 45.4964 19.4258L45.4297 19.9213ZM47.6861 20.6484L47.4405 21.0838C48.0077 21.4038 48.4411 21.8511 48.7477 22.4352L49.1904 22.2028L49.6331 21.9704C49.2378 21.2174 48.6683 20.6283 47.9318 20.2129L47.6861 20.6484ZM49.1904 22.2028L48.7549 22.4484C49.0678 23.003 49.242 23.7466 49.242 24.7099H49.742H50.242C50.242 23.6341 50.0485 22.7063 49.6259 21.9571L49.1904 22.2028ZM49.742 24.7099H49.242C49.242 25.8018 48.9933 26.7072 48.5186 27.449L48.9397 27.7185L49.3609 27.988C49.9558 27.0584 50.242 25.9581 50.242 24.7099H49.742ZM48.9397 27.7185L48.5172 27.4512C48.0493 28.1907 47.418 28.7553 46.6135 29.15L46.8337 29.5989L47.0539 30.0478C48.0211 29.5733 48.7938 28.8843 49.3623 27.9858L48.9397 27.7185ZM46.8337 29.5989L46.6101 29.1516C45.8172 29.5481 44.9255 29.7507 43.9254 29.7507V30.2507V30.7507C45.0648 30.7507 46.112 30.5187 47.0573 30.0461L46.8337 29.5989ZM43.9254 30.2507V29.7507C43.4081 29.7507 42.9992 29.7181 42.6902 29.6593L42.5966 30.1504L42.5031 30.6416C42.8961 30.7164 43.373 30.7507 43.9254 30.7507V30.2507ZM42.5966 30.1504L42.6674 29.6555C42.3505 29.6102 42.062 29.5356 41.8001 29.4337L41.6189 29.8997L41.4376 30.3657C41.7774 30.4978 42.1408 30.5904 42.5259 30.6454L42.5966 30.1504ZM41.6189 29.8997L41.8092 29.4374C41.5384 29.3259 41.2404 29.1891 40.9148 29.0263L40.6912 29.4735L40.4676 29.9207C40.8106 30.0922 41.131 30.2396 41.4285 30.3621L41.6189 29.8997ZM40.6912 29.4735H40.1912V36.0171H40.6912H41.1912V29.4735H40.6912ZM40.6912 36.0171V35.5171H36.9556V36.0171V36.5171H40.6912V36.0171ZM43.2234 27.2672V27.7672C44.1651 27.7672 44.9618 27.4806 45.5445 26.8562L45.179 26.5151L44.8135 26.1739C44.4602 26.5524 43.9532 26.7672 43.2234 26.7672V27.2672ZM45.179 26.5151L45.5501 26.8502C46.123 26.2158 46.381 25.3731 46.381 24.384H45.881H45.381C45.381 25.2 45.171 25.778 44.8079 26.1799L45.179 26.5151ZM45.881 24.384H46.381C46.381 23.6333 46.2256 22.9737 45.8682 22.4481L45.4548 22.7293L45.0413 23.0104C45.2522 23.3206 45.381 23.7641 45.381 24.384H45.881ZM45.4548 22.7293L45.8806 22.4672C45.5665 21.9568 45.1498 21.5735 44.6282 21.344L44.4269 21.8016L44.2255 22.2593C44.5396 22.3975 44.8082 22.6326 45.029 22.9913L45.4548 22.7293ZM44.4269 21.8016L44.6432 21.3509C44.1597 21.1188 43.6514 21.0008 43.1231 21.0008V21.5008V22.0008C43.4975 22.0008 43.8583 22.0833 44.2105 22.2524L44.4269 21.8016ZM43.1231 21.5008V21.0008H41.9949V21.5008V22.0008H43.1231V21.5008ZM41.9949 21.5008H42.4949V18.6928H41.9949H41.4949V21.5008H41.9949ZM41.9949 18.6928V19.1928H42.8975V18.6928V18.1928H41.9949V18.6928ZM42.8975 18.6928V19.1928C43.4317 19.1928 43.9188 19.063 44.3331 18.7795L44.0508 18.3669L43.7684 17.9542C43.5476 18.1053 43.2659 18.1928 42.8975 18.1928V18.6928ZM44.0508 18.3669L44.3474 18.7694C44.7404 18.4798 45.0364 18.0986 45.2364 17.6386L44.7779 17.4392L44.3193 17.2399C44.185 17.5487 43.9963 17.7859 43.7542 17.9643L44.0508 18.3669ZM44.7779 17.4392L45.2394 17.6315C45.4355 17.1608 45.5286 16.6427 45.5286 16.0854H45.0286H44.5286C44.5286 16.5308 44.4545 16.9153 44.3163 17.2469L44.7779 17.4392ZM45.0286 16.0854H45.5286C45.5286 15.2209 45.3073 14.4816 44.7728 13.9694L44.4269 14.3304L44.0809 14.6914C44.3487 14.948 44.5286 15.3787 44.5286 16.0854H45.0286ZM44.4269 14.3304L44.7804 13.9768C44.2885 13.4849 43.6861 13.2286 42.9978 13.2286V13.7286V14.2286C43.4126 14.2286 43.7629 14.3735 44.0733 14.6839L44.4269 14.3304ZM42.9978 13.7286V13.2286C42.4566 13.2286 41.959 13.3452 41.5212 13.5954L41.7693 14.0295L42.0174 14.4636C42.2816 14.3126 42.6029 14.2286 42.9978 14.2286V13.7286ZM41.7693 14.0295L41.5212 13.5954C41.0544 13.8622 40.7211 14.2858 40.504 14.8186L40.967 15.0073L41.43 15.1959C41.5807 14.8262 41.7822 14.598 42.0174 14.4636L41.7693 14.0295ZM40.967 15.0073L40.5065 14.8125C40.2857 15.3344 40.1912 16.0035 40.1912 16.7874H40.6912H41.1912C41.1912 16.067 41.2806 15.5493 41.4275 15.2021L40.967 15.0073ZM40.6912 16.7874H40.1912V26.4148H40.6912H41.1912V16.7874H40.6912ZM40.6912 26.4148L40.4217 26.8359C40.8646 27.1194 41.3054 27.3452 41.7442 27.5097L41.9197 27.0416L42.0953 26.5734C41.7317 26.4371 41.3535 26.245 40.9607 25.9936L40.6912 26.4148ZM41.9197 27.0416L41.7442 27.5097C42.2064 27.6831 42.701 27.7672 43.2234 27.7672V27.2672V26.7672C42.8098 26.7672 42.4353 26.7009 42.0953 26.5734L41.9197 27.0416Z" fill="black" mask="url(#path-5-outside-2_2269_3985)"/>
<mask id="path-7-outside-3_2269_3985" maskUnits="userSpaceOnUse" x="49" y="10" width="15" height="22" fill="black">
<rect fill="white" x="49" y="10" width="15" height="22"/>
<path d="M55.6596 30.07V25.169L51 12.0594H53.197L55.5389 19.0367C55.6676 19.423 55.8286 19.8817 56.0217 20.4129C56.2149 20.944 56.3919 21.4671 56.5529 21.9821C56.7299 22.4811 56.8587 22.8915 56.9391 23.2134H57.0357C57.9531 22.1994 58.6694 21.1371 59.1844 20.0266C59.7156 18.8999 60.0858 17.6847 60.295 16.381C60.5203 15.0612 60.633 13.6207 60.633 12.0594H62.7334C62.7334 13.7172 62.5886 15.2785 62.2989 16.7431C62.0091 18.1917 61.5021 19.6 60.7779 20.9681C60.0697 22.3201 59.0718 23.6963 57.7841 25.0966V30.07H55.6596Z"/>
</mask>
<path d="M55.6596 30.07V25.169L51 12.0594H53.197L55.5389 19.0367C55.6676 19.423 55.8286 19.8817 56.0217 20.4129C56.2149 20.944 56.3919 21.4671 56.5529 21.9821C56.7299 22.4811 56.8587 22.8915 56.9391 23.2134H57.0357C57.9531 22.1994 58.6694 21.1371 59.1844 20.0266C59.7156 18.8999 60.0858 17.6847 60.295 16.381C60.5203 15.0612 60.633 13.6207 60.633 12.0594H62.7334C62.7334 13.7172 62.5886 15.2785 62.2989 16.7431C62.0091 18.1917 61.5021 19.6 60.7779 20.9681C60.0697 22.3201 59.0718 23.6963 57.7841 25.0966V30.07H55.6596Z" fill="black"/>
<path d="M55.6596 30.07H54.4596V31.27H55.6596V30.07ZM55.6596 25.169H56.8596V24.9621L56.7903 24.7671L55.6596 25.169ZM51 12.0594V10.8594H49.2999L49.8693 12.4613L51 12.0594ZM53.197 12.0594L54.3346 11.6776L54.06 10.8594H53.197V12.0594ZM55.5389 19.0367L56.6773 18.6572L56.6765 18.6549L55.5389 19.0367ZM56.0217 20.4129L54.894 20.8229L54.894 20.8229L56.0217 20.4129ZM56.5529 21.9821L55.4075 22.3401L55.4143 22.3619L55.4219 22.3834L56.5529 21.9821ZM56.9391 23.2134L55.775 23.5045L56.0022 24.4134H56.9391V23.2134ZM57.0357 23.2134V24.4134H57.5683L57.9256 24.0185L57.0357 23.2134ZM59.1844 20.0266L58.099 19.5149L58.0958 19.5217L59.1844 20.0266ZM60.295 16.381L59.1121 16.179L59.1102 16.1908L60.295 16.381ZM60.633 12.0594V10.8594H59.433V12.0594H60.633ZM62.7334 12.0594H63.9334V10.8594H62.7334V12.0594ZM62.2989 16.7431L63.4756 16.9785L63.476 16.976L62.2989 16.7431ZM60.7779 20.9681L59.7173 20.4067L59.7149 20.4113L60.7779 20.9681ZM57.7841 25.0966L56.9008 24.2843L56.5841 24.6287V25.0966H57.7841ZM57.7841 30.07V31.27H58.9841V30.07H57.7841ZM55.6596 30.07H56.8596V25.169H55.6596H54.4596V30.07H55.6596ZM55.6596 25.169L56.7903 24.7671L52.1307 11.6575L51 12.0594L49.8693 12.4613L54.5289 25.5709L55.6596 25.169ZM51 12.0594V13.2594H53.197V12.0594V10.8594H51V12.0594ZM53.197 12.0594L52.0594 12.4413L54.4012 19.4185L55.5389 19.0367L56.6765 18.6549L54.3346 11.6776L53.197 12.0594ZM55.5389 19.0367L54.4004 19.4162C54.5336 19.8158 54.6984 20.2852 54.894 20.8229L56.0217 20.4129L57.1495 20.0028C56.9587 19.4782 56.8016 19.0302 56.6773 18.6572L55.5389 19.0367ZM56.0217 20.4129L54.894 20.8229C55.0811 21.3376 55.2523 21.8433 55.4075 22.3401L56.5529 21.9821L57.6982 21.6242C57.5316 21.0908 57.3486 20.5504 57.1495 20.0028L56.0217 20.4129ZM56.5529 21.9821L55.4219 22.3834C55.5927 22.8647 55.7076 23.235 55.775 23.5045L56.9391 23.2134L58.1033 22.9224C58.0097 22.5481 57.8671 22.0975 57.6838 21.5809L56.5529 21.9821ZM56.9391 23.2134V24.4134H57.0357V23.2134V22.0134H56.9391V23.2134ZM57.0357 23.2134L57.9256 24.0185C58.9146 22.9254 59.7017 21.7635 60.2731 20.5314L59.1844 20.0266L58.0958 19.5217C57.6371 20.5108 56.9917 21.4735 56.1459 22.4083L57.0357 23.2134ZM59.1844 20.0266L60.2699 20.5383C60.8519 19.3037 61.2538 17.9795 61.4798 16.5712L60.295 16.381L59.1102 16.1908C58.9177 17.3899 58.5793 18.4961 58.099 19.5149L59.1844 20.0266ZM60.295 16.381L61.4779 16.583C61.7163 15.1865 61.833 13.6775 61.833 12.0594H60.633H59.433C59.433 13.5638 59.3244 14.9358 59.1121 16.179L60.295 16.381ZM60.633 12.0594V13.2594H62.7334V12.0594V10.8594H60.633V12.0594ZM62.7334 12.0594H61.5334C61.5334 13.6475 61.3947 15.1302 61.1217 16.5103L62.2989 16.7431L63.476 16.976C63.7825 15.4268 63.9334 13.787 63.9334 12.0594H62.7334ZM62.2989 16.7431L61.1222 16.5078C60.8563 17.8373 60.3899 19.1362 59.7173 20.4067L60.7779 20.9681L61.8384 21.5296C62.6144 20.0639 63.162 18.5461 63.4756 16.9785L62.2989 16.7431ZM60.7779 20.9681L59.7149 20.4113C59.0654 21.6513 58.1343 22.943 56.9008 24.2843L57.7841 25.0966L58.6675 25.9088C60.0093 24.4496 61.074 22.989 61.8409 21.525L60.7779 20.9681ZM57.7841 25.0966H56.5841V30.07H57.7841H58.9841V25.0966H57.7841ZM57.7841 30.07V28.87H55.6596V30.07V31.27H57.7841V30.07Z" fill="black" mask="url(#path-7-outside-3_2269_3985)"/>
</svg>
